<svg width="16" height="16" viewBox="0 0 16 16" xmlns="http://www.w3.org/2000/svg">
<path fill-rule="evenodd" clip-rule="evenodd" d="M2.168 7.444C2.09423 7.55318 2.04277 7.67586 2.01656 7.80499C1.99036 7.93412 1.98993 8.06716 2.01531 8.19645C2.04068 8.32575 2.09136 8.44876 2.16443 8.5584C2.2375 8.66805 2.33152 8.76218 2.44108 8.83537C2.55064 8.90857 2.67359 8.95939 2.80286 8.98492C2.93212 9.01044 3.06516 9.01017 3.19432 8.98412C3.32348 8.95806 3.44622 8.90674 3.55549 8.8331C3.66475 8.75945 3.75838 8.66494 3.831 8.555C3.96649 8.33461 4.0113 8.07029 3.95601 7.81756C3.90073 7.56483 3.74965 7.34337 3.53451 7.19968C3.31937 7.056 3.05692 7.00128 2.80229 7.04703C2.54766 7.09277 2.32067 7.23542 2.169 7.445L2.168 7.444ZM7 8C7 7.73478 7.10536 7.48043 7.29289 7.29289C7.48043 7.10536 7.73478 7 8 7C8.26522 7 8.51957 7.10536 8.70711 7.29289C8.89464 7.48043 9 7.73478 9 8C9 8.26522 8.89464 8.51957 8.70711 8.70711C8.51957 8.89464 8.26522 9 8 9C7.73478 9 7.48043 8.89464 7.29289 8.70711C7.10536 8.51957 7 8.26522 7 8ZM12 8C12 7.73478 12.1054 7.48043 12.2929 7.29289C12.4804 7.10536 12.7348 7 13 7C13.2652 7 13.5196 7.10536 13.7071 7.29289C13.8946 7.48043 14 7.73478 14 8C14 8.26522 13.8946 8.51957 13.7071 8.70711C13.5196 8.89464 13.2652 9 13 9C12.7348 9 12.4804 8.89464 12.2929 8.70711C12.1054 8.51957 12 8.26522 12 8Z" fill="currentColor"/>
</svg>
